<svg xmlns="http://www.w3.org/2000/svg" viewBox="0 0 60 30">
    <rect width="60" height="30" fill="#003399"/>
    <g fill="#FFCC00">
        <circle cx="30" cy="15" r="3"/>
        <circle cx="30" cy="15" r="1.5" fill="#003399"/>
        <g transform="rotate(0 30 15)">
            <circle cx="30" cy="6" r="1"/>
            <circle cx="30" cy="24" r="1"/>
        </g>
        <g transform="rotate(30 30 15)">
            <circle cx="30" cy="6" r="1"/>
            <circle cx="30" cy="24" r="1"/>
        </g>
        <g transform="rotate(60 30 15)">
            <circle cx="30" cy="6" r="1"/>
            <circle cx="30" cy="24" r="1"/>
        </g>
        <g transform="rotate(90 30 15)">
            <circle cx="30" cy="6" r="1"/>
            <circle cx="30" cy="24" r="1"/>
        </g>
        <g transform="rotate(120 30 15)">
            <circle cx="30" cy="6" r="1"/>
            <circle cx="30" cy="24" r="1"/>
        </g>
        <g transform="rotate(150 30 15)">
            <circle cx="30" cy="6" r="1"/>
            <circle cx="30" cy="24" r="1"/>
        </g>
        <g transform="rotate(180 30 15)">
            <circle cx="30" cy="6" r="1"/>
            <circle cx="30" cy="24" r="1"/>
        </g>
        <g transform="rotate(210 30 15)">
            <circle cx="30" cy="6" r="1"/>
            <circle cx="30" cy="24" r="1"/>
        </g>
        <g transform="rotate(240 30 15)">
            <circle cx="30" cy="6" r="1"/>
            <circle cx="30" cy="24" r="1"/>
        </g>
        <g transform="rotate(270 30 15)">
            <circle cx="30" cy="6" r="1"/>
            <circle cx="30" cy="24" r="1"/>
        </g>
        <g transform="rotate(300 30 15)">
            <circle cx="30" cy="6" r="1"/>
            <circle cx="30" cy="24" r="1"/>
        </g>
        <g transform="rotate(330 30 15)">
            <circle cx="30" cy="6" r="1"/>
            <circle cx="30" cy="24" r="1"/>
        </g>
    </g>
</svg>
