<svg xmlns="http://www.w3.org/2000/svg" viewBox="0 0 48 48">
    <rect width="48" height="48" fill="#fff"/>
    <g>
        <rect y="2.4" width="48" height="4.8" fill="#b22234"/>
        <rect y="9.6" width="48" height="4.8" fill="#b22234"/>
        <rect y="16.8" width="48" height="4.8" fill="#b22234"/>
        <rect y="24" width="48" height="4.8" fill="#b22234"/>
        <rect y="31.2" width="48" height="4.8" fill="#b22234"/>
        <rect y="38.4" width="48" height="4.8" fill="#b22234"/>
        <rect width="19.2" height="19.2" fill="#3c3b6e"/>
        <g fill="#fff">
            <circle cx="2.4" cy="2.4" r="1.2"/>
            <circle cx="6" cy="2.4" r="1.2"/>
            <circle cx="9.6" cy="2.4" r="1.2"/>
            <circle cx="13.2" cy="2.4" r="1.2"/>
            <circle cx="16.8" cy="2.4" r="1.2"/>
            <circle cx="2.4" cy="6" r="1.2"/>
            <circle cx="6" cy="6" r="1.2"/>
            <circle cx="9.6" cy="6" r="1.2"/>
            <circle cx="13.2" cy="6" r="1.2"/>
            <circle cx="16.8" cy="6" r="1.2"/>
            <circle cx="2.4" cy="9.6" r="1.2"/>
            <circle cx="6" cy="9.6" r="1.2"/>
            <circle cx="9.6" cy="9.6" r="1.2"/>
            <circle cx="13.2" cy="9.6" r="1.2"/>
            <circle cx="16.8" cy="9.6" r="1.2"/>
            <circle cx="2.4" cy="13.2" r="1.2"/>
            <circle cx="6" cy="13.2" r="1.2"/>
            <circle cx="9.6" cy="13.2" r="1.2"/>
            <circle cx="13.2" cy="13.2" r="1.2"/>
            <circle cx="16.8" cy="13.2" r="1.2"/>
            <circle cx="2.4" cy="16.8" r="1.2"/>
            <circle cx="6" cy="16.8" r="1.2"/>
            <circle cx="9.6" cy="16.8" r="1.2"/>
            <circle cx="13.2" cy="16.8" r="1.2"/>
            <circle cx="16.8" cy="16.8" r="1.2"/>
        </g>
    </g>
</svg>
